<svg xmlns="http://www.w3.org/2000/svg" width="800" height="430" viewBox="0 0 800 430" role="img" aria-label="Histogram of NHL player heights">
  <rect width="800" height="430" rx="24" fill="#071b2f"/>
  <line x1="70" y1="360" x2="70" y2="40" stroke="#e6f7ff" stroke-width="2"/><line x1="70" y1="360" x2="770" y2="360" stroke="#e6f7ff" stroke-width="2"/><text x="400.0" y="24" text-anchor="middle" font-size="24" font-weight="600" fill="#f8fbff">Distribution of NHL player heights</text>
  <rect x="70.0" y="359.8" width="106.7" height="0.2" rx="10" fill="#4fd1c5" opacity="0.95"/><text x="123.3" y="402" text-anchor="middle" font-size="13" fill="#e6f7ff">150-159 cm</text><text x="123.3" y="351.8" text-anchor="middle" font-size="12" fill="#f8fbff">31</text><rect x="188.7" y="352.9" width="106.7" height="7.1" rx="10" fill="#4fd1c5" opacity="0.95"/><text x="242.0" y="402" text-anchor="middle" font-size="13" fill="#e6f7ff">160-169 cm</text><text x="242.0" y="344.9" text-anchor="middle" font-size="12" fill="#f8fbff">1078</text><rect x="307.3" y="190.4" width="106.7" height="169.6" rx="10" fill="#4fd1c5" opacity="0.95"/><text x="360.7" y="402" text-anchor="middle" font-size="13" fill="#e6f7ff">170-179 cm</text><text x="360.7" y="182.4" text-anchor="middle" font-size="12" fill="#f8fbff">25601</text><rect x="426.0" y="40.0" width="106.7" height="320.0" rx="10" fill="#4fd1c5" opacity="0.95"/><text x="479.3" y="402" text-anchor="middle" font-size="13" fill="#e6f7ff">180-189 cm</text><text x="479.3" y="32.0" text-anchor="middle" font-size="12" fill="#f8fbff">48305</text><rect x="544.7" y="300.9" width="106.7" height="59.1" rx="10" fill="#4fd1c5" opacity="0.95"/><text x="598.0" y="402" text-anchor="middle" font-size="13" fill="#e6f7ff">190-199 cm</text><text x="598.0" y="292.9" text-anchor="middle" font-size="12" fill="#f8fbff">8921</text><rect x="663.3" y="359.0" width="106.7" height="1.0" rx="10" fill="#4fd1c5" opacity="0.95"/><text x="716.7" y="402" text-anchor="middle" font-size="13" fill="#e6f7ff">200-209 cm</text><text x="716.7" y="351.0" text-anchor="middle" font-size="12" fill="#f8fbff">158</text>
</svg>